<!--?xml version="1.0" standalone="no"?-->
              <svg id="sw-js-blob-svg" viewBox="0 0 100 100" xmlns="http://www.w3.org/2000/svg" version="1.1">
                    <defs> 
                        <linearGradient id="sw-gradient" x1="0" x2="1" y1="1" y2="0">
                            <stop id="stop1" stop-color="rgba(219.265, 97.374, 39.684, 1)" offset="0%"></stop>
                            <stop id="stop2" stop-color="rgba(251, 168, 31, 1)" offset="100%"></stop>
                        </linearGradient>
                    </defs>
                <path fill="url(#sw-gradient)" d="M21.8,-36.1C28.1,-34.2,32.7,-27.9,35,-21.1C37.3,-14.4,37.3,-7.2,36.5,-0.5C35.7,6.3,34.1,12.6,31.4,18.5C28.6,24.5,24.6,30.1,19.2,33.9C13.8,37.6,6.9,39.5,-0.2,39.8C-7.2,40.1,-14.5,38.9,-19.6,34.9C-24.8,31,-27.8,24.4,-29.6,18.1C-31.3,11.9,-31.8,5.9,-33.4,-1C-35.1,-7.8,-37.9,-15.7,-36.6,-22.6C-35.2,-29.6,-29.6,-35.6,-22.8,-37.1C-16,-38.6,-8,-35.5,-0.1,-35.4C7.8,-35.2,15.6,-37.9,21.8,-36.1Z" width="100%" height="100%" transform="translate(50 50)" stroke-width="0" style="transition: all 0.3s ease 0s;"></path>
              </svg>