<?xml version="1.0" standalone="no"?>
<svg xmlns:xlink="http://www.w3.org/1999/xlink" id="wave" style="transform:rotate(0deg); transition: 0.3s" viewBox="0 0 1440 210" version="1.1" xmlns="http://www.w3.org/2000/svg"><defs><linearGradient id="sw-gradient-0" x1="0" x2="0" y1="1" y2="0"><stop stop-color="rgba(243, 106, 62, 1)" offset="0%"/><stop stop-color="rgba(255, 179, 11, 1)" offset="100%"/></linearGradient></defs><path style="transform:translate(0, 0px); opacity:1" fill="url(#sw-gradient-0)" d="M0,147L20,150.5C40,154,80,161,120,161C160,161,200,154,240,133C280,112,320,77,360,84C400,91,440,140,480,154C520,168,560,147,600,140C640,133,680,140,720,129.5C760,119,800,91,840,87.5C880,84,920,105,960,94.5C1000,84,1040,42,1080,52.5C1120,63,1160,126,1200,129.5C1240,133,1280,77,1320,56C1360,35,1400,49,1440,52.5C1480,56,1520,49,1560,70C1600,91,1640,140,1680,147C1720,154,1760,119,1800,112C1840,105,1880,126,1920,140C1960,154,2000,161,2040,164.5C2080,168,2120,168,2160,150.5C2200,133,2240,98,2280,94.5C2320,91,2360,119,2400,133C2440,147,2480,147,2520,136.5C2560,126,2600,105,2640,91C2680,77,2720,70,2760,77C2800,84,2840,105,2860,115.5L2880,126L2880,210L2860,210C2840,210,2800,210,2760,210C2720,210,2680,210,2640,210C2600,210,2560,210,2520,210C2480,210,2440,210,2400,210C2360,210,2320,210,2280,210C2240,210,2200,210,2160,210C2120,210,2080,210,2040,210C2000,210,1960,210,1920,210C1880,210,1840,210,1800,210C1760,210,1720,210,1680,210C1640,210,1600,210,1560,210C1520,210,1480,210,1440,210C1400,210,1360,210,1320,210C1280,210,1240,210,1200,210C1160,210,1120,210,1080,210C1040,210,1000,210,960,210C920,210,880,210,840,210C800,210,760,210,720,210C680,210,640,210,600,210C560,210,520,210,480,210C440,210,400,210,360,210C320,210,280,210,240,210C200,210,160,210,120,210C80,210,40,210,20,210L0,210Z"/><defs><linearGradient id="sw-gradient-1" x1="0" x2="0" y1="1" y2="0"><stop stop-color="rgba(243, 106, 62, 1)" offset="0%"/><stop stop-color="rgba(255, 179, 11, 1)" offset="100%"/></linearGradient></defs><path style="transform:translate(0, 50px); opacity:0.9" fill="url(#sw-gradient-1)" d="M0,42L20,66.5C40,91,80,140,120,136.5C160,133,200,77,240,56C280,35,320,49,360,49C400,49,440,35,480,52.5C520,70,560,119,600,147C640,175,680,182,720,154C760,126,800,63,840,56C880,49,920,98,960,122.5C1000,147,1040,147,1080,150.5C1120,154,1160,161,1200,157.5C1240,154,1280,140,1320,119C1360,98,1400,70,1440,63C1480,56,1520,70,1560,63C1600,56,1640,28,1680,28C1720,28,1760,56,1800,59.5C1840,63,1880,42,1920,31.5C1960,21,2000,21,2040,49C2080,77,2120,133,2160,150.5C2200,168,2240,147,2280,126C2320,105,2360,84,2400,63C2440,42,2480,21,2520,42C2560,63,2600,126,2640,150.5C2680,175,2720,161,2760,147C2800,133,2840,119,2860,112L2880,105L2880,210L2860,210C2840,210,2800,210,2760,210C2720,210,2680,210,2640,210C2600,210,2560,210,2520,210C2480,210,2440,210,2400,210C2360,210,2320,210,2280,210C2240,210,2200,210,2160,210C2120,210,2080,210,2040,210C2000,210,1960,210,1920,210C1880,210,1840,210,1800,210C1760,210,1720,210,1680,210C1640,210,1600,210,1560,210C1520,210,1480,210,1440,210C1400,210,1360,210,1320,210C1280,210,1240,210,1200,210C1160,210,1120,210,1080,210C1040,210,1000,210,960,210C920,210,880,210,840,210C800,210,760,210,720,210C680,210,640,210,600,210C560,210,520,210,480,210C440,210,400,210,360,210C320,210,280,210,240,210C200,210,160,210,120,210C80,210,40,210,20,210L0,210Z"/><defs><linearGradient id="sw-gradient-2" x1="0" x2="0" y1="1" y2="0"><stop stop-color="rgba(243, 106, 62, 1)" offset="0%"/><stop stop-color="rgba(255, 179, 11, 1)" offset="100%"/></linearGradient></defs><path style="transform:translate(0, 100px); opacity:0.8" fill="url(#sw-gradient-2)" d="M0,189L20,185.5C40,182,80,175,120,171.5C160,168,200,168,240,164.5C280,161,320,154,360,150.5C400,147,440,147,480,133C520,119,560,91,600,94.5C640,98,680,133,720,150.5C760,168,800,168,840,171.5C880,175,920,182,960,185.5C1000,189,1040,189,1080,164.5C1120,140,1160,91,1200,66.5C1240,42,1280,42,1320,45.5C1360,49,1400,56,1440,80.5C1480,105,1520,147,1560,161C1600,175,1640,161,1680,154C1720,147,1760,147,1800,154C1840,161,1880,175,1920,154C1960,133,2000,77,2040,49C2080,21,2120,21,2160,28C2200,35,2240,49,2280,63C2320,77,2360,91,2400,108.5C2440,126,2480,147,2520,157.5C2560,168,2600,168,2640,171.5C2680,175,2720,182,2760,164.5C2800,147,2840,105,2860,84L2880,63L2880,210L2860,210C2840,210,2800,210,2760,210C2720,210,2680,210,2640,210C2600,210,2560,210,2520,210C2480,210,2440,210,2400,210C2360,210,2320,210,2280,210C2240,210,2200,210,2160,210C2120,210,2080,210,2040,210C2000,210,1960,210,1920,210C1880,210,1840,210,1800,210C1760,210,1720,210,1680,210C1640,210,1600,210,1560,210C1520,210,1480,210,1440,210C1400,210,1360,210,1320,210C1280,210,1240,210,1200,210C1160,210,1120,210,1080,210C1040,210,1000,210,960,210C920,210,880,210,840,210C800,210,760,210,720,210C680,210,640,210,600,210C560,210,520,210,480,210C440,210,400,210,360,210C320,210,280,210,240,210C200,210,160,210,120,210C80,210,40,210,20,210L0,210Z"/><defs><linearGradient id="sw-gradient-3" x1="0" x2="0" y1="1" y2="0"><stop stop-color="rgba(243, 106, 62, 1)" offset="0%"/><stop stop-color="rgba(255, 179, 11, 1)" offset="100%"/></linearGradient></defs><path style="transform:translate(0, 150px); opacity:0.7" fill="url(#sw-gradient-3)" d="M0,168L20,168C40,168,80,168,120,161C160,154,200,140,240,136.5C280,133,320,140,360,126C400,112,440,77,480,52.5C520,28,560,14,600,31.5C640,49,680,98,720,126C760,154,800,161,840,143.5C880,126,920,84,960,87.5C1000,91,1040,140,1080,140C1120,140,1160,91,1200,59.5C1240,28,1280,14,1320,21C1360,28,1400,56,1440,56C1480,56,1520,28,1560,38.5C1600,49,1640,98,1680,112C1720,126,1760,105,1800,91C1840,77,1880,70,1920,73.5C1960,77,2000,91,2040,91C2080,91,2120,77,2160,91C2200,105,2240,147,2280,140C2320,133,2360,77,2400,56C2440,35,2480,49,2520,70C2560,91,2600,119,2640,126C2680,133,2720,119,2760,115.5C2800,112,2840,119,2860,122.5L2880,126L2880,210L2860,210C2840,210,2800,210,2760,210C2720,210,2680,210,2640,210C2600,210,2560,210,2520,210C2480,210,2440,210,2400,210C2360,210,2320,210,2280,210C2240,210,2200,210,2160,210C2120,210,2080,210,2040,210C2000,210,1960,210,1920,210C1880,210,1840,210,1800,210C1760,210,1720,210,1680,210C1640,210,1600,210,1560,210C1520,210,1480,210,1440,210C1400,210,1360,210,1320,210C1280,210,1240,210,1200,210C1160,210,1120,210,1080,210C1040,210,1000,210,960,210C920,210,880,210,840,210C800,210,760,210,720,210C680,210,640,210,600,210C560,210,520,210,480,210C440,210,400,210,360,210C320,210,280,210,240,210C200,210,160,210,120,210C80,210,40,210,20,210L0,210Z"/></svg>