<svg id="visual" viewBox="0 0 900 600" width="900" height="600" xmlns="http://www.w3.org/2000/svg" xmlns:xlink="http://www.w3.org/1999/xlink" version="1.1"><path d="M0 343L21.5 348.8C43 354.7 86 366.3 128.8 370.5C171.7 374.7 214.3 371.3 257.2 369.7C300 368 343 368 385.8 371.3C428.7 374.7 471.3 381.3 514.2 383.8C557 386.3 600 384.7 642.8 387.8C685.7 391 728.3 399 771.2 394.2C814 389.3 857 371.7 878.5 362.8L900 354L900 601L878.5 601C857 601 814 601 771.2 601C728.3 601 685.7 601 642.8 601C600 601 557 601 514.2 601C471.3 601 428.7 601 385.8 601C343 601 300 601 257.2 601C214.3 601 171.7 601 128.8 601C86 601 43 601 21.5 601L0 601Z" fill="#000329"></path><path d="M0 454L21.5 450.8C43 447.7 86 441.3 128.8 435.2C171.7 429 214.3 423 257.2 423.5C300 424 343 431 385.8 428.3C428.7 425.7 471.3 413.3 514.2 406.3C557 399.3 600 397.7 642.8 399.2C685.7 400.7 728.3 405.3 771.2 405.7C814 406 857 402 878.5 400L900 398L900 601L878.5 601C857 601 814 601 771.2 601C728.3 601 685.7 601 642.8 601C600 601 557 601 514.2 601C471.3 601 428.7 601 385.8 601C343 601 300 601 257.2 601C214.3 601 171.7 601 128.8 601C86 601 43 601 21.5 601L0 601Z" fill="#00133b"></path><path d="M0 470L21.5 474.2C43 478.3 86 486.7 128.8 481.8C171.7 477 214.3 459 257.2 454C300 449 343 457 385.8 459.8C428.7 462.7 471.3 460.3 514.2 464.8C557 469.3 600 480.7 642.8 483.2C685.7 485.7 728.3 479.3 771.2 476.2C814 473 857 473 878.5 473L900 473L900 601L878.5 601C857 601 814 601 771.2 601C728.3 601 685.7 601 642.8 601C600 601 557 601 514.2 601C471.3 601 428.7 601 385.8 601C343 601 300 601 257.2 601C214.3 601 171.7 601 128.8 601C86 601 43 601 21.5 601L0 601Z" fill="#001c4f"></path><path d="M0 531L21.5 522.3C43 513.7 86 496.3 128.8 496.5C171.7 496.7 214.3 514.3 257.2 520C300 525.7 343 519.3 385.8 510.3C428.7 501.3 471.3 489.7 514.2 489.5C557 489.3 600 500.7 642.8 508.5C685.7 516.3 728.3 520.7 771.2 517.5C814 514.3 857 503.7 878.5 498.3L900 493L900 601L878.5 601C857 601 814 601 771.2 601C728.3 601 685.7 601 642.8 601C600 601 557 601 514.2 601C471.3 601 428.7 601 385.8 601C343 601 300 601 257.2 601C214.3 601 171.7 601 128.8 601C86 601 43 601 21.5 601L0 601Z" fill="#012663"></path><path d="M0 559L21.5 555.8C43 552.7 86 546.3 128.8 543.7C171.7 541 214.3 542 257.2 546C300 550 343 557 385.8 557.7C428.7 558.3 471.3 552.7 514.2 548.2C557 543.7 600 540.3 642.8 540.8C685.7 541.3 728.3 545.7 771.2 546.5C814 547.3 857 544.7 878.5 543.3L900 542L900 601L878.5 601C857 601 814 601 771.2 601C728.3 601 685.7 601 642.8 601C600 601 557 601 514.2 601C471.3 601 428.7 601 385.8 601C343 601 300 601 257.2 601C214.3 601 171.7 601 128.8 601C86 601 43 601 21.5 601L0 601Z" fill="#013078"></path></svg>